<?xml version="1.0" encoding="UTF-8"?>
<svg xmlns="http://www.w3.org/2000/svg" xmlns:xlink="http://www.w3.org/1999/xlink" width="100px" height="100px" viewBox="0 0 100 100" version="1.1">
<g id="surface1">
<path style=" stroke:none;fill-rule:nonzero;fill:rgb(20%,44.313725%,50.196078%);fill-opacity:1;" d="M 50 0 C 22.386719 0 0 22.382812 0 50 C 0 77.613281 22.386719 100 50 100 C 77.613281 100 100 77.613281 100 50 C 100 22.382812 77.613281 0 50 0 Z M 50 0 "/>
<path style=" stroke:none;fill-rule:nonzero;fill:rgb(65.098039%,65.490196%,66.27451%);fill-opacity:1;" d="M 20.875 30.398438 C 19.691406 30.003906 19.296875 29.085938 19.03125 30.136719 C 18.769531 31.191406 23.375 33.820312 23.375 33.820312 L 24.691406 31.320312 C 24.691406 31.320312 22.058594 30.796875 20.875 30.398438 Z M 20.875 30.398438 "/>
<path style=" stroke:none;fill-rule:nonzero;fill:rgb(65.098039%,65.490196%,66.27451%);fill-opacity:1;" d="M 52.820312 36.191406 L 38.210938 36.191406 C 36.46875 36.191406 34.675781 37.605469 34.207031 39.347656 L 32.019531 47.507812 C 31.554688 49.253906 32.589844 50.667969 34.332031 50.667969 L 47.492188 50.667969 C 50.785156 50.667969 52.523438 49.089844 53.441406 45.667969 L 55.132812 39.347656 C 55.597656 37.605469 54.5625 36.191406 52.820312 36.191406 Z M 52.726562 42.675781 L 51.757812 46.292969 C 51.234375 48.25 50.238281 49.152344 48.355469 49.152344 L 42.109375 49.152344 C 41.109375 49.152344 40.519531 48.34375 40.785156 47.347656 L 42.035156 42.675781 C 42.304688 41.679688 43.328125 40.867188 44.328125 40.867188 L 51.402344 40.867188 C 52.402344 40.867188 52.996094 41.679688 52.726562 42.675781 Z M 52.726562 42.675781 "/>
<path style=" stroke:none;fill-rule:nonzero;fill:rgb(65.098039%,65.490196%,66.27451%);fill-opacity:1;" d="M 84.636719 29.347656 L 26.140625 29.347656 L 23.914062 30.929688 L 21.53125 40.796875 L 84.636719 40.796875 C 84.636719 40.796875 85.558594 38.691406 85.558594 35.136719 C 85.558594 31.585938 84.636719 29.347656 84.636719 29.347656 Z M 84.636719 29.347656 "/>
<path style=" stroke:none;fill-rule:nonzero;fill:rgb(73.72549%,73.72549%,73.72549%);fill-opacity:1;" d="M 84.964844 29.347656 C 84.964844 29.347656 27.585938 29.347656 26.140625 29.347656 C 24.691406 29.347656 24.339844 29.828125 23.992188 30.652344 C 23.613281 31.546875 22.46875 38.128906 21.75 38.691406 C 21.035156 39.253906 17.8125 39.167969 18.242188 40.140625 C 18.730469 41.234375 24.261719 41.542969 24.066406 46.148438 C 23.523438 47.648438 22.863281 49.175781 21.925781 50.800781 C 20.492188 53.285156 17.714844 56.0625 15.480469 60.933594 C 13.242188 65.800781 14.425781 69.75 14.425781 69.75 C 14.425781 69.75 17.023438 70.429688 21.222656 70.628906 C 25.425781 70.828125 31.402344 69.75 31.402344 69.75 C 31.402344 69.75 42.304688 43.867188 42.90625 42.792969 C 43.511719 41.71875 44.5625 41.191406 46.011719 41.191406 C 47.457031 41.191406 70.488281 41.191406 70.488281 41.191406 C 70.488281 41.191406 71.261719 40.9375 71.257812 40.796875 C 71.257812 40.796875 70.476562 40.84375 70.476562 40.765625 C 70.464844 39.648438 70.585938 36.648438 72.070312 35.269531 C 73.910156 33.558594 85.886719 34.085938 85.886719 34.085938 C 85.886719 32.570312 84.964844 29.347656 84.964844 29.347656 Z M 84.964844 29.347656 "/>
<path style=" stroke:none;fill-rule:nonzero;fill:rgb(73.72549%,73.72549%,73.72549%);fill-opacity:1;" d="M 70.484375 40.773438 C 70.480469 40.929688 70.476562 41.066406 70.476562 41.191406 C 70.484375 41.191406 70.488281 41.191406 70.488281 41.191406 C 70.488281 41.191406 71.261719 40.9375 71.257812 40.796875 C 71.257812 40.796875 70.558594 40.835938 70.484375 40.773438 Z M 70.484375 40.773438 "/>
<path style=" stroke:none;fill-rule:nonzero;fill:rgb(53.333333%,53.333333%,53.72549%);fill-opacity:1;" d="M 85.851562 34.082031 C 85.140625 34.054688 73.851562 33.613281 72.070312 35.269531 C 70.585938 36.648438 70.464844 39.648438 70.476562 40.765625 C 70.476562 40.769531 70.480469 40.773438 70.484375 40.777344 C 70.527344 39.421875 70.796875 37.042969 72.070312 35.863281 C 73.910156 34.152344 85.886719 34.675781 85.886719 34.675781 C 85.886719 34.5 85.875 34.300781 85.851562 34.082031 Z M 85.851562 34.082031 "/>
<path style=" stroke:none;fill-rule:nonzero;fill:rgb(54.509804%,54.509804%,54.901961%);fill-opacity:1;" d="M 39.015625 38.707031 C 39.015625 38.707031 34.890625 38.757812 33.394531 38.757812 C 31.902344 38.757812 30.410156 39.046875 29.742188 40.65625 L 15.707031 70.019531 C 16.867188 70.230469 18.773438 70.511719 21.226562 70.628906 C 23.601562 70.742188 26.550781 70.445312 28.660156 70.167969 L 41.011719 40.597656 C 41.679688 38.988281 40.417969 38.707031 39.015625 38.707031 Z M 39.015625 38.707031 "/>
<path style=" stroke:none;fill-rule:nonzero;fill:rgb(65.098039%,65.490196%,66.27451%);fill-opacity:1;" d="M 22.605469 36.585938 L 22.484375 37.113281 L 70.980469 37.113281 C 71.039062 36.933594 71.105469 36.757812 71.179688 36.585938 Z M 22.605469 36.585938 "/>
<path style=" stroke:none;fill-rule:nonzero;fill:rgb(61.176471%,61.568627%,62.745098%);fill-opacity:1;" d="M 31.929688 29.917969 L 41.667969 29.917969 L 41.667969 36.585938 L 31.929688 36.585938 Z M 31.929688 29.917969 "/>
<path style=" stroke:none;fill-rule:nonzero;fill:rgb(77.647059%,77.647059%,77.647059%);fill-opacity:1;" d="M 84.964844 29.347656 C 84.964844 29.347656 27.585938 29.347656 26.140625 29.347656 C 24.765625 29.347656 24.378906 29.78125 24.042969 30.53125 L 85.277344 30.53125 C 85.105469 29.839844 84.964844 29.347656 84.964844 29.347656 Z M 84.964844 29.347656 "/>
<path style=" stroke:none;fill-rule:nonzero;fill:rgb(61.176471%,61.568627%,62.745098%);fill-opacity:1;" d="M 22.839844 64.121094 C 22.328125 64.839844 22.390625 65.84375 23.039062 66.492188 C 23.683594 67.136719 24.6875 67.199219 25.40625 66.6875 Z M 22.839844 64.121094 "/>
<path style=" stroke:none;fill-rule:nonzero;fill:rgb(61.176471%,61.568627%,62.745098%);fill-opacity:1;" d="M 25.644531 63.886719 C 24.988281 63.230469 23.960938 63.171875 23.238281 63.714844 L 25.8125 66.289062 C 26.355469 65.566406 26.300781 64.542969 25.644531 63.886719 Z M 25.644531 63.886719 "/>
</g>
</svg>
